<svg version="1.1" xmlns="http://www.w3.org/2000/svg" xmlns:xlink="http://www.w3.org/1999/xlink" width="8.44403756962834in" height="2in" viewBox="0.02798121518583047 0 8.494037569628341 2.05" fill="none"><g fill="none" stroke="#ff0000" stroke-width="0.1pt" stroke-linecap="butt" stroke-linejoin="miter" stroke-miterlimit="10" stroke-dasharray="" stroke-dashoffset="0" font-family="none" font-weight="none" font-size="none" text-anchor="none" style="mix-blend-mode: normal"><path d="M0.5,0c-0.1,0 -0.21483,0.09889 -0.22967,0.19779l-0.24066,1.60443c-0.01483,0.09889 0.07033,0.19779 0.17033,0.19779h8.1c0.1,0 0.18517,-0.09889 0.17033,-0.19779l-0.24066,-1.60443c-0.01483,-0.09889 -0.12967,-0.19779 -0.22967,-0.19779zM0.66507,0.57143c0,-0.05436 0.04407,-0.09843 0.09843,-0.09843c0.05436,0 0.09843,0.04407 0.09843,0.09843c0,0.05436 -0.04407,0.09843 -0.09843,0.09843c-0.05436,0 -0.09843,-0.04407 -0.09843,-0.09843zM0.5365,1.42857c0,-0.05436 0.04407,-0.09843 0.09843,-0.09843c0.05436,0 0.09843,0.04407 0.09843,0.09843c0,0.05436 -0.04407,0.09843 -0.09843,0.09843c-0.05436,0 -0.09843,-0.04407 -0.09843,-0.09843zM7.63808,0.57143c0,-0.05436 0.04407,-0.09843 0.09843,-0.09843c0.05436,0 0.09843,0.04407 0.09843,0.09843c0,0.05436 -0.04407,0.09843 -0.09843,0.09843c-0.05436,0 -0.09843,-0.04407 -0.09843,-0.09843zM7.76665,1.42857c0,-0.05436 0.04407,-0.09843 0.09843,-0.09843c0.05436,0 0.09843,0.04407 0.09843,0.09843c0,0.05436 -0.04407,0.09843 -0.09843,0.09843c-0.05436,0 -0.09843,-0.04407 -0.09843,-0.09843zM1.47685,1.01392c0,-0.40191 0.32581,-0.72772 0.72772,-0.72772c0.40191,0 0.72772,0.32581 0.72772,0.72772c0,0.40191 -0.32581,0.72772 -0.72772,0.72772c-0.40191,0 -0.72772,-0.32581 -0.72772,-0.72772zM3.55142,1.12768c0,-0.36348 0.29466,-0.65814 0.65814,-0.65814c0.36348,0 0.65814,0.29466 0.65814,0.65814c0,0.36348 -0.29466,0.65814 -0.65814,0.65814c-0.36348,0 -0.65814,-0.29466 -0.65814,-0.65814zM6.85997,1.35405c0,-0.21124 0.17125,-0.38249 0.38249,-0.38249c0.13971,0 0.26192,0.0749 0.32867,0.18674l0.04347,0.28451c-0.04003,0.16844 -0.19145,0.29373 -0.37214,0.29373c-0.21124,0 -0.38249,-0.17125 -0.38249,-0.38249zM4.98422,1.07187c0,-0.20497 0.16616,-0.37113 0.37113,-0.37113c0.20497,0 0.37113,0.16616 0.37113,0.37113c0,0.20497 -0.16616,0.37113 -0.37113,0.37113c-0.20497,0 -0.37113,-0.16616 -0.37113,-0.37113zM2.97735,0.63923c0,-0.14564 0.11807,-0.26371 0.26371,-0.26371c0.14564,0 0.26371,0.11807 0.26371,0.26371c0,0.14564 -0.11807,0.26371 -0.26371,0.26371c-0.14564,0 -0.26371,-0.11807 -0.26371,-0.26371zM1.17582,0.23128c0.14564,0 0.26371,0.11807 0.26371,0.26371c0,0.14564 -0.11807,0.26371 -0.26371,0.26371c-0.06747,0 -0.12902,-0.02534 -0.17566,-0.06702l0.05984,-0.39168l0.07151,-0.06501c0.0144,-0.00244 0.02921,-0.00371 0.0443,-0.00371zM6.62138,0.56448c0,-0.14132 0.11456,-0.25587 0.25587,-0.25587c0.14132,0 0.25587,0.11456 0.25587,0.25587c0,0.14132 -0.11456,0.25587 -0.25587,0.25587c-0.14132,0 -0.25587,-0.11456 -0.25587,-0.25587zM0.89938,1.37402c0,-0.12909 0.10465,-0.23375 0.23375,-0.23375c0.12909,0 0.23375,0.10465 0.23375,0.23375c0,0.12909 -0.10465,0.23375 -0.23375,0.23375c-0.12909,0 -0.23375,-0.10465 -0.23375,-0.23375zM5.62175,0.42546c0,-0.12154 0.09853,-0.22007 0.22007,-0.22007c0.12154,0 0.22007,0.09853 0.22007,0.22007c0,0.12154 -0.09853,0.22007 -0.22007,0.22007c-0.12154,0 -0.22007,-0.09853 -0.22007,-0.22007zM5.88727,0.98467c0,-0.12154 0.09853,-0.22007 0.22007,-0.22007c0.12154,0 0.22007,0.09853 0.22007,0.22007c0,0.12154 -0.09853,0.22007 -0.22007,0.22007c-0.12154,0 -0.22007,-0.09853 -0.22007,-0.22007zM6.21844,1.56032c0,-0.11443 0.09276,-0.20719 0.20719,-0.20719c0.11443,0 0.20719,0.09276 0.20719,0.20719c0,0.11443 -0.09276,0.20719 -0.20719,0.20719c-0.11443,0 -0.20719,-0.09276 -0.20719,-0.20719zM3.17205,1.53282c0,-0.09081 0.07362,-0.16443 0.16443,-0.16443c0.09081,0 0.16443,0.07362 0.16443,0.16443c0,0.09081 -0.07362,0.16443 -0.16443,0.16443c-0.09081,0 -0.16443,-0.07362 -0.16443,-0.16443zM5.17187,0.35297c0,-0.07969 0.0646,-0.14429 0.14429,-0.14429c0.07969,0 0.14429,0.0646 0.14429,0.14429c0,0.07969 -0.0646,0.14429 -0.14429,0.14429c-0.07969,0 -0.14429,-0.0646 -0.14429,-0.14429zM6.17168,0.48575c0,-0.07135 0.05784,-0.12919 0.12919,-0.12919c0.07135,0 0.12919,0.05784 0.12919,0.12919c0,0.07135 -0.05784,0.12919 -0.12919,0.12919c-0.07135,0 -0.12919,-0.05784 -0.12919,-0.12919zM6.5371,1.17516c0,-0.06584 0.05337,-0.11921 0.11921,-0.11921c0.06584,0 0.11921,0.05337 0.11921,0.11921c0,0.06584 -0.05337,0.11921 -0.11921,0.11921c-0.06584,0 -0.11921,-0.05337 -0.11921,-0.11921zM4.93228,1.65044c0,-0.06324 0.05127,-0.11451 0.11451,-0.11451c0.06324,0 0.11451,0.05127 0.11451,0.11451c0,0.06324 -0.05127,0.11451 -0.11451,0.11451c-0.06324,0 -0.11451,-0.05127 -0.11451,-0.11451zM7.35475,0.46602c0,-0.05585 0.04039,-0.10227 0.09355,-0.11164l0.03424,0.2241c-0.00472,0.0006 -0.00954,0.00091 -0.01443,0.00091c-0.06261,0 -0.11336,-0.05076 -0.11336,-0.11336zM5.85377,1.67362c0,-0.06136 0.04975,-0.11111 0.11111,-0.11111c0.06136,0 0.11111,0.04975 0.11111,0.11111c0,0.06136 -0.04975,0.11111 -0.11111,0.11111c-0.06136,0 -0.11111,-0.04975 -0.11111,-0.11111zM4.71252,0.34682c0,-0.05954 0.04827,-0.10781 0.10781,-0.10781c0.05954,0 0.10781,0.04827 0.10781,0.10781c0,0.05954 -0.04827,0.10781 -0.10781,0.10781c-0.05954,0 -0.10781,-0.04827 -0.10781,-0.10781zM7.33965,0.78651c0,-0.05777 0.04683,-0.10461 0.10461,-0.10461c0.02087,0 0.04031,0.00611 0.05664,0.01664l0.02368,0.15499c-0.01919,0.02297 -0.04805,0.03758 -0.08032,0.03758c-0.05777,0 -0.10461,-0.04683 -0.10461,-0.10461zM1.04993,0.97741c0,0.05278 -0.04278,0.09556 -0.09556,0.09556c-0.00418,0 -0.0083,-0.00027 -0.01234,-0.00079l0.02886,-0.18891c0.0449,0.00783 0.07904,0.04699 0.07904,0.09414zM3.00458,1.26462c0,-0.0487 0.03948,-0.08818 0.08818,-0.08818c0.0487,0 0.08818,0.03948 0.08818,0.08818c0,0.0487 -0.03948,0.08818 -0.08818,0.08818c-0.0487,0 -0.08818,-0.03948 -0.08818,-0.08818zM5.46881,1.66624c0,-0.04231 0.0343,-0.0766 0.0766,-0.0766c0.04231,0 0.0766,0.0343 0.0766,0.0766c0,0.04231 -0.0343,0.0766 -0.0766,0.0766c-0.04231,0 -0.0766,-0.0343 -0.0766,-0.0766zM4.8742,0.69684c0,-0.04188 0.03395,-0.07584 0.07584,-0.07584c0.04188,0 0.07584,0.03395 0.07584,0.07584c0,0.04188 -0.03395,0.07584 -0.07584,0.07584c-0.04188,0 -0.07584,-0.03395 -0.07584,-0.07584zM1.44792,1.64302c0,-0.04023 0.03262,-0.07285 0.07285,-0.07285c0.04023,0 0.07285,0.03262 0.07285,0.07285c0,0.04023 -0.03262,0.07285 -0.07285,0.07285c-0.04023,0 -0.07285,-0.03262 -0.07285,-0.07285zM2.83335,1.72181c0,-0.0375 0.0304,-0.0679 0.0679,-0.0679c0.0375,0 0.0679,0.0304 0.0679,0.0679c0,0.0375 -0.0304,0.0679 -0.0679,0.0679c-0.0375,0 -0.0679,-0.0304 -0.0679,-0.0679zM2.69262,0.28356c0,-0.03358 0.02722,-0.06079 0.06079,-0.06079c0.03358,0 0.06079,0.02722 0.06079,0.06079c0,0.03358 -0.02722,0.06079 -0.06079,0.06079c-0.03358,0 -0.06079,-0.02722 -0.06079,-0.06079zM4.25629,0.29237c0,-0.03324 0.02695,-0.06019 0.06019,-0.06019c0.03324,0 0.06019,0.02695 0.06019,0.06019c0,0.03324 -0.02695,0.06019 -0.06019,0.06019c-0.03324,0 -0.06019,-0.02695 -0.06019,-0.06019zM4.49845,0.35238c0,-0.03129 0.02537,-0.05666 0.05666,-0.05666c0.03129,0 0.05666,0.02537 0.05666,0.05666c0,0.03129 -0.02537,0.05666 -0.05666,0.05666c-0.03129,0 -0.05666,-0.02537 -0.05666,-0.05666zM5.78962,1.32273c0,-0.02976 0.02413,-0.05389 0.05389,-0.05389c0.02976,0 0.05389,0.02413 0.05389,0.05389c0,0.02976 -0.02413,0.05389 -0.05389,0.05389c-0.02976,0 -0.05389,-0.02413 -0.05389,-0.05389zM1.53902,0.32316c0,-0.02888 0.02341,-0.05229 0.05229,-0.05229c0.02888,0 0.05229,0.02341 0.05229,0.05229c0,0.02888 -0.02341,0.05229 -0.05229,0.05229c-0.02888,0 -0.05229,-0.02341 -0.05229,-0.05229zM3.596,0.30966c0,-0.02746 0.02226,-0.04972 0.04972,-0.04972c0.02746,0 0.04972,0.02226 0.04972,0.04972c0,0.02746 -0.02226,0.04972 -0.04972,0.04972c-0.02746,0 -0.04972,-0.02226 -0.04972,-0.04972zM3.32811,1.14095c0,-0.02509 0.02034,-0.04542 0.04542,-0.04542c0.02509,0 0.04542,0.02034 0.04542,0.04542c0,0.02509 -0.02034,0.04542 -0.04542,0.04542c-0.02509,0 -0.04542,-0.02034 -0.04542,-0.04542zM6.54887,0.88456c0,-0.02434 0.01973,-0.04407 0.04407,-0.04407c0.02434,0 0.04407,0.01973 0.04407,0.04407c0,0.02434 -0.01973,0.04407 -0.04407,0.04407c-0.02434,0 -0.04407,-0.01973 -0.04407,-0.04407zM6.08207,1.37629c0,-0.02338 0.01896,-0.04234 0.04234,-0.04234c0.02338,0 0.04234,0.01896 0.04234,0.04234c0,0.02338 -0.01896,0.04234 -0.04234,0.04234c-0.02338,0 -0.04234,-0.01896 -0.04234,-0.04234zM6.71764,1.68258c0,-0.02158 0.01749,-0.03907 0.03907,-0.03907c0.02158,0 0.03907,0.01749 0.03907,0.03907c0,0.02158 -0.01749,0.03907 -0.03907,0.03907c-0.02158,0 -0.03907,-0.01749 -0.03907,-0.03907zM3.63686,1.7352c0,-0.02136 0.01732,-0.03868 0.03868,-0.03868c0.02136,0 0.03868,0.01732 0.03868,0.03868c0,0.02136 -0.01732,0.03868 -0.03868,0.03868c-0.02136,0 -0.03868,-0.01732 -0.03868,-0.03868zM2.91644,1.46468c0,-0.02136 0.01732,-0.03868 0.03868,-0.03868c0.02136,0 0.03868,0.01732 0.03868,0.03868c0,0.02136 -0.01732,0.03868 -0.03868,0.03868c-0.02136,0 -0.03868,-0.01732 -0.03868,-0.03868zM7.11039,0.24177c0,-0.02115 0.01714,-0.03829 0.03829,-0.03829c0.02115,0 0.03829,0.01714 0.03829,0.03829c0,0.02115 -0.01714,0.03829 -0.03829,0.03829c-0.02115,0 -0.03829,-0.01714 -0.03829,-0.03829zM3.83201,0.24567c0,-0.01991 0.01614,-0.03605 0.03605,-0.03605c0.01991,0 0.03605,0.01614 0.03605,0.03605c0,0.01991 -0.01614,0.03605 -0.03605,0.03605c-0.01991,0 -0.03605,-0.01614 -0.03605,-0.03605zM2.91446,0.31148c0,-0.01971 0.01598,-0.03569 0.03569,-0.03569c0.01971,0 0.03569,0.01598 0.03569,0.03569c0,0.01971 -0.01598,0.03569 -0.03569,0.03569c-0.01971,0 -0.03569,-0.01598 -0.03569,-0.03569zM5.27236,1.76388c0,-0.01856 0.01504,-0.0336 0.0336,-0.0336c0.01856,0 0.0336,0.01504 0.0336,0.0336c0,0.01856 -0.01504,0.0336 -0.0336,0.0336c-0.01856,0 -0.0336,-0.01504 -0.0336,-0.0336zM6.40268,0.23558c0,-0.01819 0.01474,-0.03293 0.03293,-0.03293c0.01819,0 0.03293,0.01474 0.03293,0.03293c0,0.01819 -0.01474,0.03293 -0.03293,0.03293c-0.01819,0 -0.03293,-0.01474 -0.03293,-0.03293zM2.62364,1.76059c0,-0.01783 0.01445,-0.03228 0.03228,-0.03228c0.01783,0 0.03228,0.01445 0.03228,0.03228c0,0.01783 -0.01445,0.03228 -0.03228,0.03228c-0.01783,0 -0.03228,-0.01445 -0.03228,-0.03228zM3.63574,0.4909c0,-0.01783 0.01445,-0.03228 0.03228,-0.03228c0.01783,0 0.03228,0.01445 0.03228,0.03228c0,0.01783 -0.01445,0.03228 -0.03228,0.03228c-0.01783,0 -0.03228,-0.01445 -0.03228,-0.03228zM1.22426,0.90945c0,-0.01712 0.01388,-0.031 0.031,-0.031c0.01712,0 0.031,0.01388 0.031,0.031c0,0.01712 -0.01388,0.031 -0.031,0.031c-0.01712,0 -0.031,-0.01388 -0.031,-0.031zM3.16569,1.0711c0,-0.01628 0.0132,-0.02948 0.02948,-0.02948c0.01628,0 0.02948,0.0132 0.02948,0.02948c0,0.01628 -0.0132,0.02948 -0.02948,0.02948c-0.01628,0 -0.02948,-0.0132 -0.02948,-0.02948zM3.36854,0.25552c0,-0.0158 0.01281,-0.02861 0.02861,-0.02861c0.0158,0 0.02861,0.01281 0.02861,0.02861c0,0.0158 -0.01281,0.02861 -0.02861,0.02861c-0.0158,0 -0.02861,-0.01281 -0.02861,-0.02861zM1.24621,1.73938c0,-0.01564 0.01268,-0.02832 0.02832,-0.02832c0.01564,0 0.02832,0.01268 0.02832,0.02832c0,0.01564 -0.01268,0.02832 -0.02832,0.02832c-0.01564,0 -0.02832,-0.01268 -0.02832,-0.02832zM7.23801,0.60476c0,-0.01564 0.01268,-0.02832 0.02832,-0.02832c0.01564,0 0.02832,0.01268 0.02832,0.02832c0,0.01564 -0.01268,0.02832 -0.02832,0.02832c-0.01564,0 -0.02832,-0.01268 -0.02832,-0.02832zM0.99609,1.75706c0,-0.01443 0.0117,-0.02613 0.02613,-0.02613c0.01443,0 0.02613,0.0117 0.02613,0.02613c0,0.01443 -0.0117,0.02613 -0.02613,0.02613c-0.01443,0 -0.02613,-0.0117 -0.02613,-0.02613zM6.59367,0.25495c0,-0.01387 0.01124,-0.0251 0.0251,-0.0251c0.01387,0 0.0251,0.01124 0.0251,0.0251c0,0.01387 -0.01124,0.0251 -0.0251,0.0251c-0.01387,0 -0.0251,-0.01124 -0.0251,-0.0251zM6.73186,1.50873c0,-0.01345 0.01091,-0.02436 0.02436,-0.02436c0.01345,0 0.02436,0.01091 0.02436,0.02436c0,0.01345 -0.01091,0.02436 -0.02436,0.02436c-0.01345,0 -0.02436,-0.01091 -0.02436,-0.02436zM3.84104,0.42461c0,-0.01345 0.01091,-0.02436 0.02436,-0.02436c0.01345,0 0.02436,0.01091 0.02436,0.02436c0,0.01345 -0.01091,0.02436 -0.02436,0.02436c-0.01345,0 -0.02436,-0.01091 -0.02436,-0.02436zM1.75695,0.22947c0,-0.01345 0.01091,-0.02436 0.02436,-0.02436c0.01345,0 0.02436,0.01091 0.02436,0.02436c0,0.01345 -0.01091,0.02436 -0.02436,0.02436c-0.01345,0 -0.02436,-0.01091 -0.02436,-0.02436zM6.43759,0.70352c0,-0.01305 0.01058,-0.02364 0.02364,-0.02364c0.01305,0 0.02364,0.01058 0.02364,0.02364c0,0.01305 -0.01058,0.02364 -0.02364,0.02364c-0.01305,0 -0.02364,-0.01058 -0.02364,-0.02364zM5.79257,0.77605c0,-0.01305 0.01058,-0.02364 0.02364,-0.02364c0.01305,0 0.02364,0.01058 0.02364,0.02364c0,0.01305 -0.01058,0.02364 -0.02364,0.02364c-0.01305,0 -0.02364,-0.01058 -0.02364,-0.02364zM4.02063,0.34244c0,-0.01217 0.00986,-0.02203 0.02203,-0.02203c0.01217,0 0.02203,0.00986 0.02203,0.02203c0,0.01217 -0.00986,0.02203 -0.02203,0.02203c-0.01217,0 -0.02203,-0.00986 -0.02203,-0.02203zM4.75996,1.68591c0,-0.01217 0.00986,-0.02203 0.02203,-0.02203c0.01217,0 0.02203,0.00986 0.02203,0.02203c0,0.01217 -0.00986,0.02203 -0.02203,0.02203c-0.01217,0 -0.02203,-0.00986 -0.02203,-0.02203z"></path></g></svg>